<svg width="399" height="423" viewBox="0 0 399 423" fill="none" xmlns="http://www.w3.org/2000/svg">
<path d="M152.387 18.1379L155.375 18.465L324.334 52.1444C331.244 53.5221 336.46 58.9856 337.656 65.7075L337.915 68.6571V371.667C337.915 378.69 333.564 384.859 327.185 387.348L324.334 388.181L155.375 421.86C150.412 422.85 145.265 421.567 141.35 418.371C138.219 415.811 136.14 412.241 135.433 408.332L135.166 405.347V34.9776L135.433 31.9931C136.14 28.0843 138.219 24.5137 141.35 21.9549C144.482 19.396 148.402 18.0647 152.387 18.1379ZM101.375 51.8174V85.4968H33.7915V354.828H101.375V388.507H16.8958C8.60137 388.507 1.70282 382.549 0.272214 374.694L0 371.667V68.6571C0 60.3902 5.97695 53.5146 13.8588 52.0887L16.8958 51.8174H101.375ZM168.958 55.5191V384.806L304.124 357.862V82.4626L168.958 55.5191ZM219.645 203.321C228.976 203.321 236.541 210.861 236.541 220.161C236.541 229.462 228.976 237.001 219.645 237.001C210.314 237.001 202.749 229.462 202.749 220.161C202.749 210.861 210.314 203.321 219.645 203.321Z" fill="#191919"/>
<path fill-rule="evenodd" clip-rule="evenodd" d="M337.265 0H275.531V64.3363V128.673H337.265V193.009H399V128.673V64.3363H337.265V0Z" fill="url(#paint0_radial_6_6)"/>
<defs>
<radialGradient id="paint0_radial_6_6" cx="0" cy="0" r="1" gradientUnits="userSpaceOnUse" gradientTransform="translate(275.531) rotate(57.3927) scale(229.122 146.849)">
<stop stop-color="#00A3FF"/>
<stop offset="0.583333" stop-color="#0059FF"/>
<stop offset="1" stop-color="#003597"/>
</radialGradient>
</defs>
</svg>